<svg width="32" height="32" viewBox="0 0 36 36" fill="none" xmlns="http://www.w3.org/2000/svg">
    <path d="M2 18h6c1 0 1.5-6 2.5-6s1.5 12 2.5 12c1 0 1.5-18 2.5-18s1.5 24 2.5 24c1 0 1.5-12 2-12" stroke="url(#logoGrad)" stroke-width="2.2" stroke-linecap="round" stroke-linejoin="round" />
    <path d="M20 18L24 10M20 18L24 26M24 10L24 26M24 10L30 14M24 10L30 22M24 26L30 14M24 26L30 22M30 14L30 22M30 14L34 18M30 22L34 18" stroke="url(#logoGrad)" stroke-opacity="0.4" stroke-width="1.2" stroke-linecap="round" stroke-linejoin="round" />
    <circle cx="10.5" cy="12" r="1.2" fill="#06B6D4" />
    <circle cx="13" cy="24" r="1.2" fill="#06B6D4" />
    <circle cx="15.5" cy="6" r="1.2" fill="#3B82F6" />
    <circle cx="18" cy="30" r="1.2" fill="#06B6D4" />
    <circle cx="20" cy="18" r="1.5" fill="#06B6D4" />
    <circle cx="24" cy="10" r="1.5" fill="#3B82F6" />
    <circle cx="24" cy="26" r="1.5" fill="#06B6D4" />
    <circle cx="28" cy="14" r="1.5" fill="#06B6D4" />
    <circle cx="28" cy="22" r="1.5" fill="#06B6D4" />
    <circle cx="33" cy="18" r="2.0" fill="#06B6D4" />
    <defs>
        <linearGradient id="logoGrad" x1="2" y1="18" x2="33" y2="18" gradientUnits="userSpaceOnUse">
            <stop stop-color="#3B82F6" />
            <stop offset="1" stop-color="#06B6D4" />
        </linearGradient>
    </defs>
</svg>
