<svg width="36" height="36" viewBox="0 0 36 36" fill="none" xmlns="http://www.w3.org/2000/svg">
    <rect width="36" height="36" rx="9" fill="url(#logoGrad)" />
    <path d="M4 18h6c1 0 1.5-6 2.5-6s1.5 12 2.5 12c1 0 1.5-18 2.5-18s1.5 24 2.5 24c1 0 1.5-12 2-12" stroke="white" stroke-width="1.8" stroke-linecap="round" stroke-linejoin="round" />
    <path d="M22 18L26 10M22 18L26 26M26 10L26 26M26 10L30 14M26 10L30 22M26 26L30 14M26 26L30 22M30 14L30 22M30 14L34 18M30 22L34 18" stroke="white" stroke-opacity="0.5" stroke-width="1" stroke-linecap="round" stroke-linejoin="round" />
    <circle cx="12.5" cy="12" r="1" fill="white" />
    <circle cx="15" cy="24" r="1" fill="white" />
    <circle cx="17.5" cy="6" r="1" fill="white" />
    <circle cx="20" cy="30" r="1" fill="white" />
    <circle cx="22" cy="18" r="1.2" fill="white" />
    <circle cx="26" cy="10" r="1.2" fill="white" />
    <circle cx="26" cy="26" r="1.2" fill="white" />
    <circle cx="30" cy="14" r="1.2" fill="white" />
    <circle cx="30" cy="22" r="1.2" fill="white" />
    <circle cx="34" cy="18" r="1.5" fill="white" />
    <defs>
        <linearGradient id="logoGrad" x1="0" y1="0" x2="36" y2="36">
            <stop stop-color="#3B82F6" />
            <stop offset="1" stop-color="#06B6D4" />
        </linearGradient>
    </defs>
</svg>
