<?xml version="1.0" encoding="UTF-8"?>
<svg viewBox="0 0 36 36" fill="none" xmlns="http://www.w3.org/2000/svg">
  <!-- Звуковая волна -->
  <path d="M2 18h6c1 0 1.5-6 2.5-6s1.5 12 2.5 12c1 0 1.5-18 2.5-18s1.5 24 2.5 24c1 0 1.5-12 2-12" stroke="#06B6D4" stroke-width="1.8" stroke-linecap="round" stroke-linejoin="round" />
  
  <!-- Сетевые связи (нейросеть) -->
  <path d="M20 18L24 10M20 18L24 26M24 10L24 26M24 10L28 14M24 10L28 22M24 26L28 14M24 26L28 22M28 14L28 22M28 14L33 18M28 22L33 18" stroke="#06B6D4" stroke-opacity="0.4" stroke-width="1" stroke-linecap="round" stroke-linejoin="round" />
  
  <!-- Узлы сети (точки) -->
  <circle cx="10.5" cy="12" r="1" fill="#06B6D4" />
  <circle cx="13" cy="24" r="1" fill="#06B6D4" />
  <circle cx="15.5" cy="6" r="1" fill="#06B6D4" />
  <circle cx="18" cy="30" r="1" fill="#06B6D4" />
  <circle cx="20" cy="18" r="1.2" fill="#06B6D4" />
  <circle cx="24" cy="10" r="1.2" fill="#06B6D4" />
  <circle cx="24" cy="26" r="1.2" fill="#06B6D4" />
  <circle cx="28" cy="14" r="1.2" fill="#06B6D4" />
  <circle cx="28" cy="22" r="1.2" fill="#06B6D4" />
  <circle cx="33" cy="18" r="1.5" fill="#06B6D4" />
</svg>
